<svg width="91" height="29" viewBox="0 0 91 29" fill="none" xmlns="http://www.w3.org/2000/svg">
<path d="M20.1026 15.8059L18.4987 25.1688C18.4165 25.649 18.0002 26 17.5131 26H10.5143H4.92857H2V5.4316L9.58619 2.69731C10.2825 2.44633 11.0605 2.60046 11.6086 3.09796L17.5945 8.53166C19.6183 10.3687 20.5641 13.1119 20.1026 15.8059Z" stroke="#B5733A" stroke-width="4"/>
<rect x="8" y="18" width="5" height="8" rx="1" fill="#B5733A"/>
<path d="M40.52 19.33C40.52 19.93 40.48 20.47 40.4 20.95H28.25C28.35 22.15 28.77 23.09 29.51 23.77C30.25 24.45 31.16 24.79 32.24 24.79C33.8 24.79 34.91 24.12 35.57 22.78H40.1C39.62 24.38 38.7 25.7 37.34 26.74C35.98 27.76 34.31 28.27 32.33 28.27C30.73 28.27 29.29 27.92 28.01 27.22C26.75 26.5 25.76 25.49 25.04 24.19C24.34 22.89 23.99 21.39 23.99 19.69C23.99 17.97 24.34 16.46 25.04 15.16C25.74 13.86 26.72 12.86 27.98 12.16C29.24 11.46 30.69 11.11 32.33 11.11C33.91 11.11 35.32 11.45 36.56 12.13C37.82 12.81 38.79 13.78 39.47 15.04C40.17 16.28 40.52 17.71 40.52 19.33ZM36.17 18.13C36.15 17.05 35.76 16.19 35 15.55C34.24 14.89 33.31 14.56 32.21 14.56C31.17 14.56 30.29 14.88 29.57 15.52C28.87 16.14 28.44 17.01 28.28 18.13H36.17Z" fill="#B5733A"/>
<path d="M42.5056 19.69C42.5056 17.97 42.8556 16.47 43.5556 15.19C44.2556 13.89 45.2256 12.89 46.4656 12.19C47.7056 11.47 49.1256 11.11 50.7256 11.11C52.7856 11.11 54.4856 11.63 55.8256 12.67C57.1856 13.69 58.0956 15.13 58.5556 16.99H54.0256C53.7856 16.27 53.3756 15.71 52.7956 15.31C52.2356 14.89 51.5356 14.68 50.6956 14.68C49.4956 14.68 48.5456 15.12 47.8456 16C47.1456 16.86 46.7956 18.09 46.7956 19.69C46.7956 21.27 47.1456 22.5 47.8456 23.38C48.5456 24.24 49.4956 24.67 50.6956 24.67C52.3956 24.67 53.5056 23.91 54.0256 22.39H58.5556C58.0956 24.19 57.1856 25.62 55.8256 26.68C54.4656 27.74 52.7656 28.27 50.7256 28.27C49.1256 28.27 47.7056 27.92 46.4656 27.22C45.2256 26.5 44.2556 25.5 43.5556 24.22C42.8556 22.92 42.5056 21.41 42.5056 19.69Z" fill="#B5733A"/>
<path d="M69.0125 28.27C67.4125 28.27 65.9725 27.92 64.6925 27.22C63.4125 26.5 62.4025 25.49 61.6625 24.19C60.9425 22.89 60.5825 21.39 60.5825 19.69C60.5825 17.99 60.9525 16.49 61.6925 15.19C62.4525 13.89 63.4825 12.89 64.7825 12.19C66.0825 11.47 67.5325 11.11 69.1325 11.11C70.7325 11.11 72.1825 11.47 73.4825 12.19C74.7825 12.89 75.8025 13.89 76.5425 15.19C77.3025 16.49 77.6825 17.99 77.6825 19.69C77.6825 21.39 77.2925 22.89 76.5125 24.19C75.7525 25.49 74.7125 26.5 73.3925 27.22C72.0925 27.92 70.6325 28.27 69.0125 28.27ZM69.0125 24.61C69.7725 24.61 70.4825 24.43 71.1425 24.07C71.8225 23.69 72.3625 23.13 72.7625 22.39C73.1625 21.65 73.3625 20.75 73.3625 19.69C73.3625 18.11 72.9425 16.9 72.1025 16.06C71.2825 15.2 70.2725 14.77 69.0725 14.77C67.8725 14.77 66.8625 15.2 66.0425 16.06C65.2425 16.9 64.8425 18.11 64.8425 19.69C64.8425 21.27 65.2325 22.49 66.0125 23.35C66.8125 24.19 67.8125 24.61 69.0125 24.61Z" fill="#B5733A"/>
<path d="M84.9633 13.96C85.5033 13.08 86.2034 12.39 87.0634 11.89C87.9434 11.39 88.9433 11.14 90.0633 11.14V15.55H88.9533C87.6333 15.55 86.6334 15.86 85.9534 16.48C85.2933 17.1 84.9633 18.18 84.9633 19.72V28H80.7634V11.38H84.9633V13.96Z" fill="#B5733A"/>
</svg>
